<mxfile host="app.diagrams.net" modified="2023-09-04T22:27:31.553Z" agent="Mozilla/5.0 (Macintosh; Intel Mac OS X 10_15_7) AppleWebKit/537.36 (KHTML, like Gecko) Chrome/112.0.0.0 Safari/537.36" etag="oVt5mUyK9ttH2JJEE8RY" version="21.7.2" type="device">
  <diagram name="PÃ¡gina-1" id="NZQ2BkZgjty3ar514oXB">
    <mxGraphModel dx="1434" dy="803" grid="1" gridSize="10" guides="1" tooltips="1" connect="1" arrows="1" fold="1" page="1" pageScale="1" pageWidth="827" pageHeight="1169" math="0" shadow="0">
      <root>
        <mxCell id="0" />
        <mxCell id="1" parent="0" />
        <mxCell id="9SotH-NGpJFT4Yf5EACV-3" value="&lt;i style=&quot;border-color: var(--border-color); font-weight: 400;&quot;&gt;&amp;lt;&amp;lt;Abstract&amp;gt;&amp;gt;&lt;/i&gt;Vehiculo" style="swimlane;fontStyle=1;align=center;verticalAlign=top;childLayout=stackLayout;horizontal=1;startSize=26;horizontalStack=0;resizeParent=1;resizeParentMax=0;resizeLast=0;collapsible=1;marginBottom=0;whiteSpace=wrap;html=1;" vertex="1" parent="1">
          <mxGeometry x="250" y="60" width="270" height="140" as="geometry" />
        </mxCell>
        <mxCell id="9SotH-NGpJFT4Yf5EACV-4" value="+ aceleracion: double&lt;br&gt;+ velocidad : double&lt;br&gt;+ anguloDeGiro : double&lt;br&gt;+ patente : String&lt;br&gt;+ peso : double&lt;br&gt;+ ruedas : int" style="text;strokeColor=none;fillColor=none;align=left;verticalAlign=top;spacingLeft=4;spacingRight=4;overflow=hidden;rotatable=0;points=[[0,0.5],[1,0.5]];portConstraint=eastwest;whiteSpace=wrap;html=1;" vertex="1" parent="9SotH-NGpJFT4Yf5EACV-3">
          <mxGeometry y="26" width="270" height="114" as="geometry" />
        </mxCell>
        <mxCell id="9SotH-NGpJFT4Yf5EACV-7" value="Carrera" style="swimlane;fontStyle=1;align=center;verticalAlign=top;childLayout=stackLayout;horizontal=1;startSize=26;horizontalStack=0;resizeParent=1;resizeParentMax=0;resizeLast=0;collapsible=1;marginBottom=0;whiteSpace=wrap;html=1;" vertex="1" parent="1">
          <mxGeometry x="720" y="60" width="250" height="140" as="geometry" />
        </mxCell>
        <mxCell id="9SotH-NGpJFT4Yf5EACV-8" value="+ distancia: int&lt;br&gt;+ premioEnDolares : double&lt;br&gt;+ nombre : String&lt;br&gt;+ cantidadVehiculosPermitidos : int&lt;br&gt;+ listaVehiculos : List&amp;lt;Vehiculo&amp;gt;&lt;br&gt;+ socorristaAuto : SocorristaAuto&lt;br&gt;+ socorristaMoto : SocorristaMoto" style="text;strokeColor=none;fillColor=none;align=left;verticalAlign=top;spacingLeft=4;spacingRight=4;overflow=hidden;rotatable=0;points=[[0,0.5],[1,0.5]];portConstraint=eastwest;whiteSpace=wrap;html=1;" vertex="1" parent="9SotH-NGpJFT4Yf5EACV-7">
          <mxGeometry y="26" width="250" height="114" as="geometry" />
        </mxCell>
        <mxCell id="9SotH-NGpJFT4Yf5EACV-19" value="SocorristaAuto" style="swimlane;fontStyle=1;align=center;verticalAlign=top;childLayout=stackLayout;horizontal=1;startSize=26;horizontalStack=0;resizeParent=1;resizeParentMax=0;resizeLast=0;collapsible=1;marginBottom=0;whiteSpace=wrap;html=1;" vertex="1" parent="1">
          <mxGeometry x="430" y="480" width="220" height="50" as="geometry" />
        </mxCell>
        <mxCell id="9SotH-NGpJFT4Yf5EACV-70" value="Extends" style="endArrow=block;endSize=16;endFill=0;html=1;rounded=0;entryX=0.456;entryY=0.5;entryDx=0;entryDy=0;entryPerimeter=0;" edge="1" parent="9SotH-NGpJFT4Yf5EACV-19">
          <mxGeometry width="160" relative="1" as="geometry">
            <mxPoint x="110" as="sourcePoint" />
            <mxPoint x="162.96000000000004" y="-104" as="targetPoint" />
          </mxGeometry>
        </mxCell>
        <mxCell id="9SotH-NGpJFT4Yf5EACV-22" value="+ socorrerAuto(Auto unAuto): void&lt;br&gt;" style="text;strokeColor=none;fillColor=none;align=left;verticalAlign=top;spacingLeft=4;spacingRight=4;overflow=hidden;rotatable=0;points=[[0,0.5],[1,0.5]];portConstraint=eastwest;whiteSpace=wrap;html=1;" vertex="1" parent="9SotH-NGpJFT4Yf5EACV-19">
          <mxGeometry y="26" width="220" height="24" as="geometry" />
        </mxCell>
        <mxCell id="9SotH-NGpJFT4Yf5EACV-23" value="SocorristaMoto" style="swimlane;fontStyle=1;align=center;verticalAlign=top;childLayout=stackLayout;horizontal=1;startSize=26;horizontalStack=0;resizeParent=1;resizeParentMax=0;resizeLast=0;collapsible=1;marginBottom=0;whiteSpace=wrap;html=1;" vertex="1" parent="1">
          <mxGeometry x="680.0000000000001" y="480" width="220" height="50" as="geometry" />
        </mxCell>
        <mxCell id="9SotH-NGpJFT4Yf5EACV-71" value="Extends" style="endArrow=block;endSize=16;endFill=0;html=1;rounded=0;" edge="1" parent="9SotH-NGpJFT4Yf5EACV-23">
          <mxGeometry width="160" relative="1" as="geometry">
            <mxPoint x="99.99999999999989" as="sourcePoint" />
            <mxPoint x="-70.00000000000011" y="-100" as="targetPoint" />
          </mxGeometry>
        </mxCell>
        <mxCell id="9SotH-NGpJFT4Yf5EACV-26" value="+ socorrerMoto(Moto unaMoto): void" style="text;strokeColor=none;fillColor=none;align=left;verticalAlign=top;spacingLeft=4;spacingRight=4;overflow=hidden;rotatable=0;points=[[0,0.5],[1,0.5]];portConstraint=eastwest;whiteSpace=wrap;html=1;" vertex="1" parent="9SotH-NGpJFT4Yf5EACV-23">
          <mxGeometry y="26" width="220" height="24" as="geometry" />
        </mxCell>
        <mxCell id="9SotH-NGpJFT4Yf5EACV-27" value="Moto" style="swimlane;fontStyle=1;align=center;verticalAlign=top;childLayout=stackLayout;horizontal=1;startSize=26;horizontalStack=0;resizeParent=1;resizeParentMax=0;resizeLast=0;collapsible=1;marginBottom=0;whiteSpace=wrap;html=1;" vertex="1" parent="1">
          <mxGeometry x="80" y="320" width="160" height="94" as="geometry" />
        </mxCell>
        <mxCell id="9SotH-NGpJFT4Yf5EACV-67" value="Extends" style="endArrow=block;endSize=16;endFill=0;html=1;rounded=0;entryX=0.388;entryY=1.024;entryDx=0;entryDy=0;entryPerimeter=0;" edge="1" parent="9SotH-NGpJFT4Yf5EACV-27" target="9SotH-NGpJFT4Yf5EACV-4">
          <mxGeometry width="160" relative="1" as="geometry">
            <mxPoint x="90" as="sourcePoint" />
            <mxPoint x="280" y="-110" as="targetPoint" />
          </mxGeometry>
        </mxCell>
        <mxCell id="9SotH-NGpJFT4Yf5EACV-28" value="+ peso: double = 300.00&lt;br&gt;+ ruedas: int = 2" style="text;strokeColor=none;fillColor=none;align=left;verticalAlign=top;spacingLeft=4;spacingRight=4;overflow=hidden;rotatable=0;points=[[0,0.5],[1,0.5]];portConstraint=eastwest;whiteSpace=wrap;html=1;" vertex="1" parent="9SotH-NGpJFT4Yf5EACV-27">
          <mxGeometry y="26" width="160" height="34" as="geometry" />
        </mxCell>
        <mxCell id="9SotH-NGpJFT4Yf5EACV-29" value="" style="line;strokeWidth=1;fillColor=none;align=left;verticalAlign=middle;spacingTop=-1;spacingLeft=3;spacingRight=3;rotatable=0;labelPosition=right;points=[];portConstraint=eastwest;strokeColor=inherit;" vertex="1" parent="9SotH-NGpJFT4Yf5EACV-27">
          <mxGeometry y="60" width="160" height="8" as="geometry" />
        </mxCell>
        <mxCell id="9SotH-NGpJFT4Yf5EACV-30" value="+ method(type): type" style="text;strokeColor=none;fillColor=none;align=left;verticalAlign=top;spacingLeft=4;spacingRight=4;overflow=hidden;rotatable=0;points=[[0,0.5],[1,0.5]];portConstraint=eastwest;whiteSpace=wrap;html=1;" vertex="1" parent="9SotH-NGpJFT4Yf5EACV-27">
          <mxGeometry y="68" width="160" height="26" as="geometry" />
        </mxCell>
        <mxCell id="9SotH-NGpJFT4Yf5EACV-31" value="Auto" style="swimlane;fontStyle=1;align=center;verticalAlign=top;childLayout=stackLayout;horizontal=1;startSize=26;horizontalStack=0;resizeParent=1;resizeParentMax=0;resizeLast=0;collapsible=1;marginBottom=0;whiteSpace=wrap;html=1;" vertex="1" parent="1">
          <mxGeometry x="305" y="320" width="160" height="94" as="geometry" />
        </mxCell>
        <mxCell id="9SotH-NGpJFT4Yf5EACV-69" value="Extends" style="endArrow=block;endSize=16;endFill=0;html=1;rounded=0;entryX=0.481;entryY=1.02;entryDx=0;entryDy=0;entryPerimeter=0;" edge="1" parent="9SotH-NGpJFT4Yf5EACV-31" target="9SotH-NGpJFT4Yf5EACV-4">
          <mxGeometry width="160" relative="1" as="geometry">
            <mxPoint x="75" as="sourcePoint" />
            <mxPoint x="75" y="-110" as="targetPoint" />
          </mxGeometry>
        </mxCell>
        <mxCell id="9SotH-NGpJFT4Yf5EACV-32" value="+ peso: double = 1000.00&lt;br style=&quot;border-color: var(--border-color);&quot;&gt;+ ruedas: int = 4" style="text;strokeColor=none;fillColor=none;align=left;verticalAlign=top;spacingLeft=4;spacingRight=4;overflow=hidden;rotatable=0;points=[[0,0.5],[1,0.5]];portConstraint=eastwest;whiteSpace=wrap;html=1;" vertex="1" parent="9SotH-NGpJFT4Yf5EACV-31">
          <mxGeometry y="26" width="160" height="34" as="geometry" />
        </mxCell>
        <mxCell id="9SotH-NGpJFT4Yf5EACV-33" value="" style="line;strokeWidth=1;fillColor=none;align=left;verticalAlign=middle;spacingTop=-1;spacingLeft=3;spacingRight=3;rotatable=0;labelPosition=right;points=[];portConstraint=eastwest;strokeColor=inherit;" vertex="1" parent="9SotH-NGpJFT4Yf5EACV-31">
          <mxGeometry y="60" width="160" height="8" as="geometry" />
        </mxCell>
        <mxCell id="9SotH-NGpJFT4Yf5EACV-34" value="+ method(type): type" style="text;strokeColor=none;fillColor=none;align=left;verticalAlign=top;spacingLeft=4;spacingRight=4;overflow=hidden;rotatable=0;points=[[0,0.5],[1,0.5]];portConstraint=eastwest;whiteSpace=wrap;html=1;" vertex="1" parent="9SotH-NGpJFT4Yf5EACV-31">
          <mxGeometry y="68" width="160" height="26" as="geometry" />
        </mxCell>
        <mxCell id="9SotH-NGpJFT4Yf5EACV-53" value="&lt;p style=&quot;margin:0px;margin-top:4px;text-align:center;&quot;&gt;&lt;i style=&quot;border-color: var(--border-color);&quot;&gt;&amp;lt;&amp;lt;Interface&amp;gt;&amp;gt;&lt;/i&gt;&lt;b&gt;&lt;br&gt;&lt;/b&gt;&lt;/p&gt;&lt;p style=&quot;margin:0px;margin-top:4px;text-align:center;&quot;&gt;&lt;b&gt;CarreraInterface&lt;/b&gt;&lt;/p&gt;&lt;p style=&quot;margin:0px;margin-left:4px;&quot;&gt;&lt;br&gt;&lt;/p&gt;&lt;hr size=&quot;1&quot;&gt;&lt;p style=&quot;margin:0px;margin-left:4px;&quot;&gt;+ darDeAltaAuto(double velocidad, double aceleracion, double anguloDeGiro, String patente): void&lt;br style=&quot;border-color: var(--border-color);&quot;&gt;+ darDeAltaMoto(double velocidad, double aceleracion, double anguloDeGiro, String patente): void&lt;/p&gt;&lt;p style=&quot;margin:0px;margin-left:4px;&quot;&gt;+ eliminarVehiculo(Vehiculo vehiculo): void&lt;br&gt;&lt;/p&gt;&lt;p style=&quot;margin:0px;margin-left:4px;&quot;&gt;+ eliminarVehiculoConPatente(String unaPatente): void&lt;br&gt;&lt;/p&gt;&lt;p style=&quot;margin:0px;margin-left:4px;&quot;&gt;+ ganador(List&amp;lt;Vehiculo&amp;gt; vehiculo): Vehiculo&lt;/p&gt;&lt;p style=&quot;margin:0px;margin-left:4px;&quot;&gt;+ socorrerAuto(String patente): void&lt;br&gt;&lt;/p&gt;&lt;p style=&quot;margin:0px;margin-left:4px;&quot;&gt;+ socorrerMoto(String patente): void&lt;br&gt;&lt;/p&gt;&lt;p style=&quot;margin:0px;margin-left:4px;&quot;&gt;&lt;br&gt;&lt;/p&gt;" style="verticalAlign=top;align=left;overflow=fill;fontSize=12;fontFamily=Helvetica;html=1;whiteSpace=wrap;" vertex="1" parent="1">
          <mxGeometry x="1020" y="60" width="410" height="200" as="geometry" />
        </mxCell>
        <mxCell id="9SotH-NGpJFT4Yf5EACV-60" value="VehiculoSocorrista" style="swimlane;fontStyle=1;align=center;verticalAlign=top;childLayout=stackLayout;horizontal=1;startSize=26;horizontalStack=0;resizeParent=1;resizeParentMax=0;resizeLast=0;collapsible=1;marginBottom=0;whiteSpace=wrap;html=1;" vertex="1" parent="1">
          <mxGeometry x="520" y="320" width="160" height="52" as="geometry" />
        </mxCell>
        <mxCell id="9SotH-NGpJFT4Yf5EACV-68" value="Extends" style="endArrow=block;endSize=16;endFill=0;html=1;rounded=0;entryX=0.5;entryY=1;entryDx=0;entryDy=0;" edge="1" parent="9SotH-NGpJFT4Yf5EACV-60" target="9SotH-NGpJFT4Yf5EACV-3">
          <mxGeometry width="160" relative="1" as="geometry">
            <mxPoint x="70" as="sourcePoint" />
            <mxPoint x="230" as="targetPoint" />
          </mxGeometry>
        </mxCell>
        <mxCell id="9SotH-NGpJFT4Yf5EACV-102" value="" style="endArrow=diamondThin;endFill=1;endSize=24;html=1;rounded=0;entryX=1;entryY=0.5;entryDx=0;entryDy=0;exitX=0;exitY=0.5;exitDx=0;exitDy=0;" edge="1" parent="1" source="9SotH-NGpJFT4Yf5EACV-8" target="9SotH-NGpJFT4Yf5EACV-4">
          <mxGeometry width="160" relative="1" as="geometry">
            <mxPoint x="620" y="220" as="sourcePoint" />
            <mxPoint x="780" y="220" as="targetPoint" />
          </mxGeometry>
        </mxCell>
        <mxCell id="9SotH-NGpJFT4Yf5EACV-103" value="" style="endArrow=diamondThin;endFill=1;endSize=24;html=1;rounded=0;exitX=0.5;exitY=0;exitDx=0;exitDy=0;" edge="1" parent="1">
          <mxGeometry width="160" relative="1" as="geometry">
            <mxPoint x="789.9800000000002" y="480" as="sourcePoint" />
            <mxPoint x="790" y="200" as="targetPoint" />
          </mxGeometry>
        </mxCell>
        <mxCell id="9SotH-NGpJFT4Yf5EACV-104" value="" style="endArrow=diamondThin;endFill=1;endSize=24;html=1;rounded=0;entryX=0.914;entryY=1.007;entryDx=0;entryDy=0;entryPerimeter=0;exitX=0.457;exitY=1.013;exitDx=0;exitDy=0;exitPerimeter=0;" edge="1" parent="1" source="9SotH-NGpJFT4Yf5EACV-22" target="9SotH-NGpJFT4Yf5EACV-8">
          <mxGeometry width="160" relative="1" as="geometry">
            <mxPoint x="950" y="390" as="sourcePoint" />
            <mxPoint x="1040" y="310" as="targetPoint" />
            <Array as="points">
              <mxPoint x="530" y="560" />
              <mxPoint x="950" y="560" />
            </Array>
          </mxGeometry>
        </mxCell>
        <mxCell id="9SotH-NGpJFT4Yf5EACV-105" value="Use" style="endArrow=open;endSize=12;dashed=1;html=1;rounded=0;exitX=1;exitY=0.5;exitDx=0;exitDy=0;entryX=-0.003;entryY=0.42;entryDx=0;entryDy=0;entryPerimeter=0;" edge="1" parent="1" source="9SotH-NGpJFT4Yf5EACV-8" target="9SotH-NGpJFT4Yf5EACV-53">
          <mxGeometry width="160" relative="1" as="geometry">
            <mxPoint x="930" y="180" as="sourcePoint" />
            <mxPoint x="1090" y="180" as="targetPoint" />
          </mxGeometry>
        </mxCell>
      </root>
    </mxGraphModel>
  </diagram>
</mxfile>
